/* XPM */
static char * cobas2_xpm[] = {
"22 22 31 1",
" 	c None",
".	c #DDDDDD",
"+	c #C9D4DA",
"@	c #97BCD0",
"#	c #9EBFD1",
"$	c #D2D8DB",
"%	c #ACC6D3",
"&	c #2384B8",
"*	c #2685B8",
"=	c #2585B8",
"-	c #2C88B9",
";	c #C6D3D9",
">	c #DEDEDE",
",	c #2C88BA",
"'	c #1A80B6",
")	c #1C81B6",
"!	c #549DC2",
"~	c #D4DADC",
"{	c #1E81B7",
"]	c #2D89BA",
"^	c #2887B9",
"/	c #4E9AC1",
"(	c #9DBED0",
"_	c #2284B7",
":	c #1F82B7",
"<	c #2284B8",
"[	c #BCCED7",
"}	c #BECFD7",
"|	c #81B1CB",
"1	c #89B5CE",
"2	c #CBD6DB",
"                      ",
"                      ",
"                      ",
"                      ",
"                      ",
"                      ",
"                      ",
"                      ",
"               .+@#$  ",
"              .%&*=-; ",
"              >,''')!.",
"              ~{'''']>",
"              >^''')/>",
"              >(_:<=[ ",
"               >}|12  ",
"                      ",
"                      ",
"                      ",
"                      ",
"                      ",
"                      ",
"                      "};
