/* XPM */
static char * coba22_xpm[] = {
"22 22 30 1",
" 	c None",
".	c #DEDEDE",
"+	c #DFDFDF",
"@	c #C8D4DA",
"#	c #97BCD0",
"$	c #9EC0D1",
"%	c #D5DADD",
"&	c #ACC6D4",
"*	c #2485B8",
"=	c #2384B7",
"-	c #2F8ABA",
";	c #CBD6DB",
">	c #2C89BA",
",	c #1A80B6",
"'	c #1E82B7",
")	c #5FA2C4",
"!	c #1E82B6",
"~	c #368EBC",
"{	c #2987B9",
"]	c #1C81B6",
"^	c #599EC3",
"/	c #A2C1D2",
"(	c #2384B8",
"_	c #1E81B7",
":	c #2184B8",
"<	c #C6D3DA",
"[	c #C7D3D9",
"}	c #8EB7CD",
"|	c #98BDD0",
"1	c #D4DADC",
".++++++++++++++++++++.",
"+....................+",
"+....................+",
"+....................+",
"+....................+",
"+....................+",
"+....................+",
"+....................+",
"+................@#$%+",
"+...............&*=*-;",
"+...............>,,,')",
"+..............%!,,,,~",
"+...............{,,,]^",
"+.............../(_:{<",
"+................[}|1+",
"+....................+",
"+....................+",
"+....................+",
"+....................+",
"+....................+",
"+....................+",
".++++++++++++++++++++."};
