/* XPM */
static char * coba_xpm[] = {
"22 22 30 1",
" 	c None",
".	c #DEDEDE",
"+	c #DFDFDF",
"@	c #CBDFCC",
"#	c #A0E2A5",
"$	c #A6E2AB",
"%	c #D6DFD7",
"&	c #B2E1B6",
"*	c #3AE748",
"=	c #39E747",
"-	c #3BE848",
";	c #45E750",
">	c #CEE0CF",
",	c #43E74F",
"'	c #32E740",
")	c #32E840",
"!	c #36E843",
"~	c #6FE578",
"{	c #4BE757",
"]	c #3FE74C",
"^	c #34E842",
"/	c #69E572",
"(	c #A9E1AD",
"_	c #36E844",
":	c #38E845",
"<	c #C9E0CB",
"[	c #CADFCC",
"}	c #97E29D",
"|	c #A1E2A6",
"1	c #D6DFD6",
".++++++++++++++++++++.",
"+....................+",
"+....................+",
"+....................+",
"+....................+",
"+....................+",
"+....................+",
"+....................+",
"+................@#$%+",
"+...............&*=-;>",
"+...............,'))!~",
"+..............%!)))){",
"+...............])))^/",
"+...............(=_:]<",
"+................[}|1+",
"+....................+",
"+....................+",
"+....................+",
"+....................+",
"+....................+",
"+....................+",
".++++++++++++++++++++."};
