/* XPM */
static char * cobaaa_xpm[] = {
"22 22 9 1",
" 	c None",
".	c #1A80B6",
"+	c #1A81B6",
"@	c #1B81B7",
"#	c #1B80B7",
"$	c #1B80B6",
"%	c #1B81B6",
"&	c #1980B6",
"*	c #1A80B7",
"                      ",
"                      ",
"                      ",
"                      ",
"                      ",
"                      ",
"                      ",
"                      ",
"                      ",
"                 .+++ ",
"                +...@#",
"                $....%",
"                ....&&",
"                 *.$. ",
"                      ",
"                      ",
"                      ",
"                      ",
"                      ",
"                      ",
"                      ",
"                      "};
