/* XPM */
static char * stickk_pressed_xpm[] = {
"19 19 25 1",
" 	c None",
".	c #DEDEDE",
"+	c #DDDDDD",
"@	c #DEE0E0",
"#	c #D8FFFF",
"$	c #34E842",
"%	c #D8FDFD",
"&	c #DDE1E1",
"*	c #D9DEDA",
"=	c #32E840",
"-	c #D6DFD7",
";	c #D9DFDB",
">	c #DDE0E0",
",	c #D8FEFD",
"'	c #32E83F",
")	c #D8FEFE",
"!	c #DEE1E1",
"~	c #DADEDB",
"{	c #D3DED5",
"]	c #CCDFCE",
"^	c #D7DED8",
"/	c #D0DFD1",
"(	c #84FF92",
"_	c #DADFDB",
":	c #DDDEDD",
".+++++++++++++++++.",
"+.................+",
"+.................+",
"+.................+",
"+.................+",
"+.....@#$$$%&.....+",
"+......*===-......+",
"+......*===-......+",
"+......;===-......+",
"+.....>,''')!.....+",
"+.....-=====*.....+",
"+......~{=]~......+",
"+.......^=/.......+",
"+........(_.......+",
"+........:........+",
"+.................+",
"+.................+",
"+.................+",
".+++++++++++++++++."};
