/* XPM */
static char * unfocus_xpm[] = {
"19 19 22 1",
" 	c None",
".	c #DEDEDE",
"+	c #D8D8D8",
"@	c #C4C4C4",
"#	c #C1C1C1",
"$	c #C5C5C5",
"%	c #C0C0C0",
"&	c #A2A2A2",
"*	c #A3A3A3",
"=	c #A0A0A0",
"-	c #BFBFBF",
";	c #D7D7D7",
">	c #C6C6C6",
",	c #C7C7C7",
"'	c #C8C8C8",
")	c #DADADA",
"!	c #D9D9D9",
"~	c #C2C2C2",
"{	c #A4A4A4",
"]	c #DCDCDC",
"^	c #CCCCCC",
"/	c #DBDBDB",
"...................",
"...................",
"...................",
"...................",
".......+@#$+.......",
"......%&*=*&#......",
".....-&=====*%.....",
"....+*=======&;....",
"....$&=======*>....",
"....%=========#....",
"....,*=======*'....",
"....)*=======*!....",
".....~*=====*@.....",
"......$*{{{*$......",
".......]^$^/.......",
"...................",
"...................",
"...................",
"..................."};
